<svg width="58" height="81" viewBox="0 0 58 81" fill="none" xmlns="http://www.w3.org/2000/svg">
<path d="M15 28.5L7 23H2.5L1 25L0 27L1.5 30L10 36.5L15 40L14.5 41L12 43L8 45.5L2.5 49.5L0.5 52V54.5L3.5 57.5H7L8.5 56.5L13 53C14.6667 52 18 49.9 18 49.5C18 49.1 21.3333 47.3333 23 46.5L25.5 44L26.5 42V38.5C26.5 38.1 25.8333 37 25.5 36.5L23 34.5L20 32L15 28.5Z" fill="#58C587"/>
<path d="M10.5 8L9.5 9L9 9.5L8 10H6.5H5H4.5L3.5 9.5L3 9L2.5 8.5L2 8L1.5 7V6V4.5V3.5V2.5L2 1.5L2.5 1L4 0H5H6H7.5H8.5L9.5 0.5L10.5 1.5L11 2L11.5 2.5V3.5V4.5V6L11 7L10.5 8Z" fill="#58C587"/>
<path d="M11.5 76.5L10.5 78L9.72121 78.7788L9 80H8L6 80.5L4 80L3 79.5L2 78.5L1.5 77L1 75.5L1.5 73L2.5 71.5L3.5 70.5L4.5 70H5.5H6.5H8L9 70.5L10 71L11 72L11.5 73.5V74.5V76.5Z" fill="#58C587"/>
<path d="M24.5 11L19.5 8H17.5L14.5 8.5L12 11V13L12.5 15L16.5 18.5L32 29.5L44.5 38L45.5 39V39.5V41L44.5 42L28 54L14 64.5L12 68L13.3817 70.5L14.5 72H20.5L21.5 71.5L34 62.5L45.5 54L54.5 48L58 43.5V37.5L56 34.5L51.5 30L44.5 25L38.5 21.5L34.5 18C32.6667 16.8333 28.9 14.4 28.5 14C28.1 13.6 25.6667 11.8333 24.5 11Z" fill="#58C587"/>
</svg>
